<?xml version="1.0"?><svg fill="#ffffff" xmlns="http://www.w3.org/2000/svg"  viewBox="0 0 24 24" width="24px" height="24px">    <path d="M 4 3 C 3.447 3 3 3.448 3 4 L 3 20 C 3 20.552 3.447 21 4 21 L 11 21 C 11.553 21 12 20.552 12 20 L 12 16.5 L 12 7.5 L 12 4 C 12 3.448 11.553 3 11 3 L 4 3 z M 12 7.5 C 12 9.981 14.019 12 16.5 12 C 18.981 12 21 9.981 21 7.5 C 21 5.019 18.981 3 16.5 3 C 14.019 3 12 5.019 12 7.5 z M 16.5 12 C 14.019 12 12 14.019 12 16.5 C 12 18.981 14.019 21 16.5 21 C 18.981 21 21 18.981 21 16.5 C 21 14.019 18.981 12 16.5 12 z"/></svg>